# xmcd
#
# Track frame offsets:
#	150
#	14555
#	29317
#	44122
#	60812
#	77530
#	96022
#	110775
#	126480
#	145257
#	158447
#
# Disc length: 2469 seconds
#
# Revision: 3
# Processed by: cddbd v1.5.2PL0 Copyright (c) Steve Scherf et al.
# Submitted via: EZCDAudioConverter 2.4.0.1
#
DISCID=8d09a30b
DTITLE=Steve Young - Renegade Picker
DYEAR=1976
DGENRE=Country
TTITLE0=Renegade Picker
TTITLE1=I Can't Be Myself
TTITLE2=Old Memories (Mean Nothing To Me)
TTITLE3=It's Not Supposed To Be That Way
TTITLE4=Tobacco Road
TTITLE5=Light of My Life
TTITLE6=Lonesome, On'ry and Mean
TTITLE7=All Her Lovers Want To Be the Hero
TTITLE8=Broken Hearted People (Take Me To a Barroom)
TTITLE9=Sweet Thing
TTITLE10=Home Sweet Home (Revisited)
EXTD=
EXTT0=
EXTT1=
EXTT2=
EXTT3=
EXTT4=
EXTT5=
EXTT6=
EXTT7=
EXTT8=
EXTT9=
EXTT10=
PLAYORDER=
